<svg version="1.0" xmlns="http://www.w3.org/2000/svg" viewBox="0 0 380.000000 380.000000" preserveAspectRatio="xMidYMid meet"> <metadata> Created by potrace 1.16, written by Peter Selinger 2001-2019 </metadata> <g transform="translate(0.000000,380.000000) scale(0.100000,-0.100000)" fill="#ffffff" stroke="none"> <path d="M1 3415 c0 -354 1 -388 18 -415 10 -17 21 -27 24 -23 4 3 7 1 7 -7 0 -10 4 -10 17 1 15 12 14 11 -1 -13 -10 -15 -15 -31 -12 -36 3 -5 -1 -9 -9 -9 -11 0 -12 5 -4 19 8 15 7 23 -4 31 -8 7 -19 20 -24 31 -8 14 -10 1 -12 -50 0 -38 3 -76 9 -84 5 -8 10 -12 10 -8 0 4 17 0 37 -9 21 -9 59 -21 86 -28 44 -12 48 -12 62 8 8 11 12 24 9 29 -4 5 3 4 15 -4 20 -12 20 -13 1 -20 -39 -14 -21 -34 50 -54 48 -15 72 -18 80 -10 7 7 10 5 10 -6 0 -10 23 -23 73 -38 39 -13 78 -25 85 -27 7 -3 19 9 27 28 l15 34 -6 -37 -6 -37 53 -15 c69 -21 67 -21 72 17 4 32 4 32 5 -5 l2 -37 97 -30 c53 -17 108 -28 122 -26 14 3 20 2 13 -1 -15 -7 -6 -24 14 -24 8 0 12 5 9 10 -3 6 -1 10 4 10 6 0 11 -6 11 -14 0 -15 26 -27 105 -51 64 -19 73 -19 78 3 4 13 5 11 6 -5 0 -13 7 -23 15 -23 18 0 42 62 51 132 6 50 5 57 -11 61 -16 4 -16 5 2 6 19 1 24 10 33 64 16 91 16 89 -26 83 l-38 -5 38 10 39 11 -7 97 c-3 53 -8 105 -11 116 -3 13 3 28 15 39 26 23 27 36 4 37 -12 0 -13 2 -5 6 7 3 18 0 25 -6 9 -7 21 -5 42 9 16 10 32 17 37 14 4 -3 8 0 8 6 0 6 5 8 10 5 6 -3 10 2 10 12 0 15 2 16 10 3 8 -12 10 -12 10 -1 0 22 -42 131 -49 127 -3 -2 -6 9 -7 26 -2 46 -15 51 -73 32 -28 -9 -51 -20 -51 -26 0 -5 9 -4 21 2 11 7 23 9 26 7 2 -3 -5 -8 -18 -12 -17 -6 -19 -9 -8 -17 12 -8 11 -9 -1 -5 -8 2 -20 13 -26 25 -6 12 -14 19 -19 14 -5 -4 -5 -2 -1 5 4 7 12 10 19 7 8 -3 27 2 43 11 16 8 37 15 47 15 9 0 17 3 17 8 0 20 -114 312 -122 312 -5 0 -7 4 -4 9 3 5 1 23 -5 39 l-11 31 -211 0 -212 1 -68 -171 c-37 -94 -65 -175 -62 -180 4 -5 2 -9 -4 -9 -5 0 -17 -19 -26 -43 -9 -23 -31 -65 -50 -92 -23 -34 -30 -52 -22 -57 9 -5 8 -11 -1 -20 -8 -7 -13 -8 -12 -3 6 28 -3 24 -30 -13 -34 -47 -37 -57 -14 -48 9 3 12 2 9 -5 -4 -6 -13 -8 -21 -5 -17 6 -57 -48 -52 -72 2 -12 29 -25 91 -45 49 -16 86 -31 83 -34 -6 -6 -134 35 -163 53 -19 12 -24 11 -45 -6 l-23 -19 40 -43 40 -43 -41 38 -41 38 -53 -86 c-50 -80 -70 -105 -56 -69 6 15 135 214 146 224 3 3 15 20 28 38 20 28 22 36 10 50 -11 15 -11 15 3 5 14 -11 25 0 81 80 39 55 78 126 97 177 18 47 39 99 46 115 16 35 95 237 95 242 0 1 -166 3 -370 3 l-369 0 0 -385z"/> <path d="M1211 3748 c11 -29 25 -55 30 -56 5 -2 7 -8 4 -12 -3 -5 2 -26 11 -47 10 -21 18 -40 18 -43 1 -3 4 -9 7 -15 4 -5 12 -28 19 -50 7 -22 16 -44 20 -50 3 -5 12 -29 20 -52 12 -39 30 -58 30 -32 0 5 5 7 11 4 6 -5 4 -11 -7 -19 -16 -12 -15 -18 11 -87 34 -92 40 -99 77 -99 30 0 128 37 128 49 0 3 17 7 37 9 20 1 41 8 45 15 5 8 8 8 8 1 0 -7 15 -15 34 -18 19 -4 46 -16 61 -28 31 -24 43 -16 45 32 3 56 1 67 -9 52 -6 -10 -10 -9 -14 7 -3 12 -1 19 4 15 5 -3 9 1 10 8 0 7 5 2 11 -12 10 -23 12 -20 33 47 13 40 37 95 53 122 31 50 49 102 80 234 l19 78 -79 -2 c-51 -1 -82 -6 -89 -15 -6 -8 -19 -14 -28 -13 -11 0 -9 3 7 9 12 5 22 11 22 14 0 2 -122 5 -272 5 l-272 1 -36 -33 c-21 -19 -26 -22 -12 -6 30 35 28 39 -18 39 l-40 0 21 -52z"/> <path d="M2011 3777 c-5 -12 -16 -61 -26 -107 -9 -47 -30 -113 -46 -147 -17 -35 -29 -66 -29 -69 1 -4 -4 -10 -10 -14 -14 -9 -70 -175 -70 -207 0 -12 -4 -24 -9 -27 -5 -4 -8 -43 -5 -88 3 -65 9 -94 34 -145 33 -69 38 -101 27 -170 -3 -24 -4 -43 0 -43 3 0 29 16 57 36 28 19 40 25 26 12 -14 -13 -37 -30 -50 -39 -32 -21 -26 -26 35 -30 l50 -4 1 52 c1 50 15 83 36 83 7 0 6 -5 -1 -13 -6 -8 -7 -18 -3 -22 4 -5 1 -5 -5 -1 -10 5 -13 -7 -13 -48 l0 -56 43 0 c23 0 66 -3 96 -7 51 -6 54 -5 48 13 -6 17 -6 17 5 3 9 -11 42 -19 103 -26 104 -12 119 -6 110 41 -4 27 -4 28 5 8 l10 -23 27 19 c30 21 50 42 135 136 59 65 71 89 62 119 -4 13 -2 17 5 13 6 -4 11 0 11 11 0 10 3 28 6 41 4 14 2 22 -6 22 -7 0 -10 -7 -7 -15 4 -8 2 -17 -3 -20 -6 -4 -10 0 -10 9 0 8 -5 16 -11 18 -9 3 -9 10 1 27 10 19 10 25 -1 31 -7 5 1 8 21 7 30 -2 34 1 42 33 16 64 28 85 66 111 20 14 119 83 219 155 l183 129 -107 107 -108 108 -468 0 -467 0 -9 -23z"/> <path d="M2986 3791 c-3 -4 39 -51 92 -104 l97 -97 56 38 c144 98 160 112 148 135 -9 20 -9 20 4 5 18 -23 17 -23 57 7 l34 25 -242 0 c-133 -1 -243 -4 -246 -9z"/> <path d="M3438 3757 c-32 -23 -100 -73 -153 -110 -55 -40 -92 -73 -89 -79 4 -7 2 -8 -5 -4 -13 8 -143 -80 -388 -261 -68 -51 -72 -57 -84 -109 -11 -47 -10 -57 2 -66 12 -8 11 -9 -2 -5 -13 4 -20 -12 -37 -86 -13 -61 -17 -93 -10 -96 6 -2 -3 -9 -19 -16 -17 -7 -53 -39 -79 -72 -27 -32 -70 -76 -95 -98 -25 -22 -44 -43 -42 -48 2 -4 9 -4 15 -1 7 4 8 2 4 -4 -4 -6 -13 -9 -20 -6 -26 10 -28 -26 -10 -158 7 -58 18 -60 86 -18 26 17 53 30 58 30 5 0 25 8 44 17 26 12 33 20 25 29 -7 8 -7 14 1 19 6 4 9 1 8 -7 -2 -8 6 -12 22 -11 254 22 367 24 447 7 15 -3 23 2 26 13 4 17 5 17 6 1 1 -13 9 -18 30 -18 16 0 43 -3 60 -6 28 -6 31 -4 31 17 0 13 5 31 10 39 6 10 8 3 3 -22 l-6 -38 224 0 c123 0 241 -3 262 -7 l39 -6 -3 484 c-1 333 -5 489 -13 498 -8 11 -8 13 2 7 10 -6 12 18 11 113 l-1 121 -151 -1 -152 0 -57 -42z"/> <path d="M1643 3232 c-13 -2 -23 -7 -23 -11 0 -4 -8 -7 -17 -8 -10 -1 -40 -12 -68 -24 -27 -13 -58 -22 -68 -20 -9 1 -20 -5 -23 -13 -7 -19 14 -86 27 -86 6 0 8 -4 5 -8 -3 -5 3 -30 13 -56 17 -46 17 -46 36 -26 10 11 22 20 27 20 5 0 -3 -10 -18 -23 l-26 -23 26 -99 c15 -55 30 -108 33 -118 4 -16 12 -18 51 -14 l47 6 -40 -11 c-22 -6 -41 -12 -43 -13 -2 -2 3 -17 12 -33 l15 -30 36 16 c20 10 33 22 31 29 -3 7 -1 15 5 18 5 4 9 3 8 -2 -4 -21 4 -22 43 -2 23 12 58 27 77 34 41 16 25 18 -36 6 -24 -5 -43 -4 -43 0 0 5 12 9 26 9 14 0 23 4 20 9 -3 4 6 6 19 3 14 -2 33 -1 42 3 16 7 15 9 -7 15 -22 7 -23 8 -4 9 43 2 57 107 20 151 -26 31 -48 107 -48 165 0 59 -19 112 -38 100 -4 -3 -10 0 -12 6 -2 6 -19 11 -38 12 -19 1 -37 4 -40 7 -3 3 -15 4 -27 2z"/> <path d="M1353 3143 c-12 -2 -36 -17 -53 -33 -26 -24 -30 -35 -30 -79 0 -49 2 -53 33 -66 17 -8 26 -14 19 -15 -7 0 -22 5 -33 10 -18 10 -19 7 -19 -49 0 -48 3 -60 18 -64 13 -4 14 -5 1 -6 -11 -1 -19 -19 -27 -65 -17 -90 -16 -96 13 -96 22 0 24 -2 13 -14 -7 -8 -14 -10 -16 -5 -2 5 -10 9 -18 9 -11 0 -13 -7 -8 -26 5 -20 4 -25 -5 -19 -9 5 -11 -1 -8 -24 3 -18 1 -31 -5 -31 -6 0 -7 -11 -4 -26 5 -17 3 -23 -4 -19 -5 3 -10 0 -10 -9 0 -8 -3 -23 -6 -33 -5 -15 -4 -15 5 -3 9 13 11 13 11 0 0 -9 19 -23 43 -33 23 -10 31 -15 17 -12 -78 17 -87 17 -94 -1 -8 -21 20 -48 42 -39 7 2 11 1 7 -4 -5 -9 83 -48 98 -43 4 1 7 -3 7 -9 0 -6 9 -8 23 -4 18 5 19 4 7 -5 -12 -10 -11 -11 7 -7 15 3 20 1 17 -8 -6 -14 82 -49 97 -39 5 3 9 1 9 -4 0 -5 9 -12 20 -15 11 -3 20 0 20 6 0 8 3 8 8 2 9 -13 58 -35 77 -35 7 0 16 10 18 23 4 20 4 19 6 -4 1 -20 7 -28 27 -32 26 -5 26 -4 19 42 -9 59 -8 58 -58 66 -48 8 -178 47 -173 52 2 3 28 -3 59 -12 30 -8 63 -17 73 -20 11 -2 34 -7 52 -11 l32 -6 0 41 c0 26 -5 41 -12 41 -9 0 -8 4 2 10 13 8 12 15 -6 52 -12 24 -28 60 -37 81 -10 21 -24 40 -33 44 -13 5 -13 7 -2 14 9 6 2 9 -19 9 -22 0 -33 5 -33 14 0 8 -7 22 -16 30 -14 15 -14 16 0 16 9 0 16 -4 16 -10 0 -5 8 -10 18 -11 10 0 12 -3 5 -6 -20 -8 -15 -23 7 -23 24 0 24 0 6 42 -8 18 -17 45 -21 61 -5 23 -11 27 -43 29 -37 1 -37 1 -4 5 36 5 36 4 20 72 l-11 50 -76 24 c-63 20 -70 24 -39 23 21 0 38 -4 38 -7 0 -3 16 -10 35 -16 19 -6 35 -10 35 -8 0 2 -4 14 -9 27 -5 13 -9 26 -10 30 -3 13 -48 132 -62 161 -12 27 -24 30 -76 20z"/> <path d="M1 2620 l0 -220 42 -1 c23 0 35 -3 27 -6 -8 -3 -18 -11 -22 -17 -5 -8 -8 -7 -8 2 0 6 -9 12 -19 12 -19 0 -20 -9 -21 -195 0 -194 0 -196 22 -205 l23 -9 -22 0 -23 -1 0 -260 c0 -201 3 -260 13 -260 8 0 7 -4 -3 -10 -12 -8 -12 -10 5 -10 13 0 16 -3 8 -8 -7 -5 -15 -52 -19 -125 -6 -95 -4 -117 7 -117 7 0 103 29 214 64 110 35 211 67 224 71 14 4 83 42 155 83 72 42 168 97 214 122 77 44 82 48 67 64 -12 12 -13 16 -3 16 8 1 6 6 -6 15 -11 8 -17 15 -13 15 4 0 -3 24 -14 53 -17 40 -59 187 -59 202 0 2 -8 2 -17 0 -10 -1 -12 0 -5 2 16 6 15 22 -2 29 -8 3 -13 14 -11 24 19 100 18 108 -15 147 -18 21 -51 49 -74 63 l-42 25 12 100 c7 55 15 121 19 148 5 45 5 47 -18 47 -14 0 -44 7 -68 15 -24 9 -52 14 -61 11 -10 -2 -18 0 -18 4 0 5 -8 11 -17 13 -14 4 -13 5 4 6 12 0 24 7 26 14 4 8 6 7 6 -3 1 -16 91 -50 130 -50 20 0 31 35 31 100 0 38 -1 38 -60 58 l-60 21 -7 -27 c-4 -15 -8 -29 -8 -32 0 -3 -6 -14 -12 -25 -12 -20 -12 -20 -13 0 0 12 5 26 11 32 6 6 9 21 7 33 -2 19 -18 28 -87 52 -65 21 -87 25 -93 15 -12 -19 -9 -75 4 -79 7 -3 5 -7 -6 -11 -17 -7 -18 -2 -14 52 l4 58 -69 23 c-38 12 -73 18 -77 13 -5 -4 -35 -49 -68 -99 l-60 -92 36 -16 c33 -14 21 -14 -28 0 -10 2 -23 -8 -34 -27 -10 -17 -20 -28 -22 -26 -3 2 34 65 81 138 l85 134 -82 27 c-45 16 -85 28 -89 28 -4 0 -8 -99 -8 -220z"/> <path d="M1809 2713 c-1 -5 -1 -11 0 -15 0 -4 -6 -5 -14 -2 -11 5 -13 2 -9 -9 3 -9 1 -24 -6 -34 -10 -16 -10 -16 -5 4 11 38 -3 44 -48 21 -23 -11 -43 -20 -45 -19 -1 1 -16 -6 -32 -14 -39 -20 -38 -39 3 -59 17 -8 25 -16 17 -16 -9 0 -22 6 -29 13 -7 6 -1 -15 14 -48 15 -33 29 -66 32 -72 3 -7 9 -13 14 -13 4 0 13 -10 19 -22 11 -22 10 -22 -4 -4 -15 19 -16 19 -16 -7 0 -30 3 -32 31 -16 11 5 16 15 13 21 -4 6 -3 9 2 6 5 -3 18 -2 29 3 16 6 14 8 -12 8 -17 1 -34 5 -37 9 -3 5 9 6 26 4 19 -3 33 1 39 9 6 10 9 6 9 -13 0 -21 -5 -28 -20 -28 -10 0 -23 -6 -27 -14 -4 -7 -13 -15 -19 -17 -8 -3 -9 -12 -3 -26 11 -29 49 -31 49 -3 0 13 6 20 18 19 10 0 12 -3 5 -6 -7 -2 -13 -11 -13 -19 0 -10 13 -14 45 -14 43 0 45 1 45 29 0 16 -6 31 -12 34 -7 2 -11 6 -8 9 3 3 19 -1 35 -8 19 -8 23 -13 13 -14 -10 0 -18 -7 -18 -15 0 -10 11 -15 35 -15 33 0 40 7 36 38 -1 6 3 12 10 12 6 0 9 -8 6 -19 -5 -20 10 -31 39 -31 23 0 16 28 -8 33 -23 4 -23 4 -1 6 12 0 24 9 26 19 3 9 5 -13 6 -50 l1 -66 73 28 c114 44 225 99 230 112 4 10 6 10 6 1 1 -19 49 6 57 29 7 22 -14 200 -24 210 -5 5 -36 11 -71 14 -49 6 -65 4 -72 -7 -6 -10 -9 -10 -9 -1 0 6 -4 12 -10 12 -15 0 -12 -128 4 -182 8 -25 12 -49 8 -53 -14 -13 -36 92 -33 163 1 41 -2 72 -8 72 -5 0 -11 -10 -13 -22 -3 -21 -4 -21 -18 -3 -13 17 -13 18 0 10 12 -6 13 -6 2 6 -8 8 -41 15 -87 17 l-75 4 0 -40 c0 -23 5 -43 13 -45 10 -4 10 -6 0 -6 -20 -1 -15 -39 5 -44 16 -4 16 -5 -1 -6 -10 0 -16 -5 -12 -10 3 -5 1 -12 -5 -16 -6 -4 -10 6 -10 24 0 23 -5 31 -22 34 l-23 4 23 2 c20 1 22 6 22 56 l0 55 -77 -1 c-50 0 -71 -3 -58 -8 11 -5 23 -7 28 -4 4 2 7 -1 7 -7 0 -7 -6 -10 -14 -7 -9 4 -17 -1 -19 -11 -4 -16 -5 -15 -6 1 0 9 -8 17 -17 17 -8 0 -12 5 -9 10 3 6 1 10 -4 10 -6 0 -12 -3 -12 -7z"/> <path d="M686 2598 c-6 -22 -32 -262 -41 -364 -4 -50 -4 -51 33 -69 20 -10 40 -18 45 -17 4 1 7 -4 7 -11 0 -8 10 -22 22 -33 21 -19 21 -19 16 4 -4 13 -2 22 5 22 14 0 17 -111 4 -121 -5 -3 -7 -18 -5 -33 l3 -28 100 51 c54 28 103 55 108 60 4 4 -5 19 -21 33 -23 19 -26 26 -16 36 16 14 28 16 19 2 -8 -13 25 -62 39 -56 37 15 50 17 27 3 l-23 -14 23 -6 c23 -6 40 0 107 39 l33 19 -2 130 c-2 149 -8 168 -47 159 -19 -4 -23 -3 -13 4 11 8 8 13 -15 26 -43 23 -20 19 26 -4 l40 -20 0 29 c0 28 -4 31 -91 60 -51 17 -96 28 -100 25 -5 -3 -9 -1 -9 4 0 11 -107 45 -120 37 -6 -3 -10 -2 -10 3 0 4 -26 16 -57 26 -32 10 -63 21 -70 23 -7 3 -15 -6 -17 -19z"/> <path d="M2811 2590 c-63 -4 -106 -11 -109 -18 -2 -6 -9 -9 -16 -6 -7 3 -69 -20 -137 -50 -120 -53 -125 -57 -156 -108 -18 -29 -32 -57 -30 -62 2 -6 -5 -18 -15 -28 -13 -13 -18 -33 -18 -71 0 -52 1 -53 28 -52 15 1 19 0 10 -2 -10 -2 -18 -9 -18 -14 0 -5 8 -9 18 -9 14 0 14 -2 3 -9 -10 -7 -19 -4 -27 7 -10 14 -13 12 -22 -18 -5 -19 -13 -42 -17 -51 -5 -13 1 -18 24 -21 18 -3 31 0 31 6 0 8 3 8 8 0 4 -6 14 -14 22 -17 12 -4 11 -6 -2 -6 -10 -1 -18 -7 -18 -13 0 -7 -5 -5 -11 5 -5 9 -21 17 -34 17 -20 0 -25 -5 -25 -24 0 -13 7 -29 15 -36 18 -15 20 -35 3 -24 -8 5 -9 -2 -5 -26 4 -18 7 -36 7 -41 0 -4 12 -10 28 -12 l27 -4 -28 -2 c-30 -1 -30 0 -10 -105 6 -34 33 -67 47 -59 6 3 6 0 -1 -7 -6 -7 -9 -20 -7 -29 3 -9 -2 -4 -11 12 -8 15 -17 27 -18 27 -2 0 0 -33 4 -72 4 -40 8 -78 8 -85 1 -13 3 -13 191 12 58 8 124 17 148 21 39 5 61 24 27 24 -8 0 -15 4 -15 9 0 5 9 7 20 4 11 -3 20 -12 20 -19 0 -8 5 -14 10 -14 6 0 10 9 10 20 0 13 6 20 18 19 10 0 12 -3 5 -6 -7 -2 -13 -9 -13 -15 0 -5 20 -7 51 -4 71 8 99 16 99 30 0 8 2 8 8 0 8 -13 112 -38 120 -29 3 3 -1 5 -8 5 -7 0 -10 3 -6 7 4 4 15 -2 24 -14 9 -13 31 -24 47 -26 17 -2 52 -12 78 -22 42 -16 50 -16 58 -4 7 11 9 11 9 -3 0 -11 8 -18 20 -18 11 0 20 5 20 10 0 6 9 1 20 -10 18 -18 39 -25 63 -21 4 0 7 -4 7 -10 0 -6 9 -8 20 -4 11 3 20 2 20 -3 0 -10 103 -41 133 -39 9 0 17 5 17 11 0 6 5 3 11 -6 14 -24 28 -22 39 5 9 20 9 19 7 -8 -2 -29 1 -31 63 -52 108 -36 99 -53 100 186 l0 210 -27 4 -28 4 28 2 27 1 0 364 0 363 -80 7 c-44 3 -179 6 -300 6 -199 -1 -220 -3 -221 -18 0 -14 -2 -14 -6 -2 -3 8 -11 18 -17 22 -14 10 -86 10 -86 1 0 -5 -3 -18 -6 -30 -5 -19 -2 -23 17 -24 21 -1 21 -2 4 -6 -11 -3 -24 -10 -28 -17 -5 -6 -6 13 -2 42 l6 52 -35 0 c-19 0 -37 -6 -39 -12 -4 -10 -6 -10 -6 0 -1 13 -17 13 -190 2z"/> <path d="M2328 2412 c-21 -8 -38 -19 -38 -24 0 -5 -4 -7 -9 -3 -5 3 -17 -3 -27 -12 -10 -10 -20 -17 -23 -16 -15 6 -41 -10 -41 -25 0 -12 -3 -13 -8 -5 -6 10 -14 9 -35 -2 -15 -7 -27 -12 -27 -10 0 8 -65 -19 -72 -29 -12 -17 -9 -38 3 -30 8 5 8 1 0 -13 -13 -26 -76 -81 -107 -95 -13 -6 -24 -19 -24 -29 0 -16 7 -18 48 -14 26 2 0 -5 -58 -16 -58 -10 -118 -20 -133 -20 l-28 0 7 -57 c4 -31 12 -60 18 -64 8 -6 8 -8 0 -8 -15 0 -5 -50 10 -50 7 0 7 -3 -1 -8 -16 -10 -5 -50 16 -55 14 -4 14 -5 -1 -6 -20 -1 -21 -16 -10 -91 6 -36 12 -45 32 -51 l25 -7 -24 -1 c-22 -1 -23 -4 -17 -43 3 -24 8 -61 11 -82 3 -21 6 -41 8 -43 2 -2 30 -1 61 3 l56 7 -6 36 c-4 20 -10 38 -14 41 -4 3 -2 10 4 16 9 8 15 7 24 -3 8 -8 9 -13 2 -13 -12 0 -13 -40 -1 -58 12 -20 131 -5 132 17 0 10 2 11 6 4 2 -7 11 -13 18 -13 7 0 16 6 18 13 4 8 6 8 6 0 1 -11 108 -8 141 4 8 4 21 5 28 4 6 -1 12 6 13 16 0 16 1 16 9 -2 7 -18 8 -19 15 -2 13 31 -3 67 -30 67 -21 0 -25 -5 -26 -32 -2 -31 -2 -31 -6 -5 -3 16 -11 27 -20 27 -11 0 -14 -8 -11 -30 3 -16 1 -30 -4 -30 -4 0 -8 13 -8 30 0 29 0 30 -47 25 -27 -2 -39 -2 -28 1 11 4 23 11 27 18 6 8 8 8 8 -1 0 -7 7 -10 15 -7 16 6 19 41 9 93 -6 27 -10 31 -40 31 -28 0 -34 -4 -34 -20 0 -11 -7 -23 -15 -26 -8 -4 -16 -18 -16 -33 l-2 -26 -4 25 c-3 14 -10 28 -17 32 -6 4 1 8 17 8 23 0 27 4 27 29 0 53 -8 61 -61 61 -27 0 -49 5 -49 10 0 7 18 8 50 4 48 -6 50 -6 50 18 0 24 -3 25 -47 22 -27 -2 -40 -1 -31 2 9 3 19 13 21 22 4 15 5 15 6 -1 2 -34 90 10 91 46 0 4 9 17 20 29 23 25 26 43 7 35 -8 -3 -20 -1 -28 5 -10 7 -6 8 16 6 30 -4 43 4 74 45 12 15 11 17 -7 17 -12 0 -22 -8 -24 -17 -3 -15 -5 -14 -10 5 -5 19 -2 22 22 22 68 0 108 110 55 152 -14 11 -24 29 -24 41 1 21 2 21 6 2 12 -49 43 -60 43 -15 0 17 14 58 31 91 16 33 29 64 27 68 -2 4 -20 1 -40 -7z"/> <path d="M1190 2259 c0 -131 0 -131 23 -125 12 3 28 6 35 6 7 0 17 10 22 23 5 13 9 16 9 7 1 -13 16 -16 68 -18 37 -2 87 -7 110 -13 55 -12 133 5 133 30 0 10 3 12 8 5 7 -12 12 -11 77 4 l40 9 -27 11 c-15 6 -39 12 -55 14 -15 2 -30 5 -33 8 -3 3 -32 13 -65 22 -45 13 -62 14 -67 5 -5 -8 -8 -6 -8 6 0 16 -10 21 -37 18 -7 -1 -13 3 -13 8 0 9 -26 21 -44 20 -5 0 -12 4 -15 9 -3 5 -30 22 -59 36 -52 26 -55 27 -75 9 -12 -9 -16 -11 -9 -3 16 18 15 27 -3 34 -13 5 -15 -13 -15 -125z"/> <path d="M1700 2353 c0 -27 4 -32 28 -35 21 -2 28 -9 29 -28 3 -25 3 -25 -7 -2 -9 22 -50 32 -50 12 0 -5 3 -10 8 -10 4 0 7 -18 7 -40 1 -21 3 -42 7 -45 11 -12 38 8 39 29 0 16 2 18 7 5 4 -9 16 -15 26 -13 47 7 66 15 60 25 -4 7 1 9 15 4 17 -5 21 -2 22 17 1 17 3 18 6 6 6 -23 11 -22 75 2 46 17 54 24 55 47 0 16 -1 20 -4 11 -5 -19 -53 -22 -50 -3 1 5 -17 11 -40 13 -41 3 -43 2 -44 -25 -1 -17 -3 -21 -6 -10 -3 13 -15 17 -49 17 -43 0 -44 0 -44 -34 0 -30 4 -35 28 -38 26 -3 26 -4 -5 -9 l-33 -6 0 44 c0 39 -2 43 -25 43 -14 0 -25 4 -25 8 0 5 -7 17 -15 28 -14 18 -14 17 -15 -13z"/> <path d="M1853 2228 c-13 -6 -23 -14 -23 -18 0 -4 -14 -4 -31 -2 -24 4 -30 2 -24 -8 5 -8 4 -11 -3 -7 -5 4 -18 4 -27 1 -13 -5 -15 -14 -10 -43 10 -59 16 -71 32 -71 11 0 14 6 9 26 -5 17 -3 23 4 19 5 -3 10 -13 10 -22 0 -13 8 -15 46 -9 26 3 53 6 60 6 8 0 14 7 14 16 0 11 -6 14 -22 8 -21 -6 -21 -6 -4 11 15 16 18 48 7 103 -1 4 -16 1 -38 -10z"/> <path d="M1589 2143 c-75 -22 -86 -29 -84 -47 1 -12 3 -34 4 -50 1 -28 1 -28 26 -12 14 10 43 19 63 21 20 3 59 7 85 11 l48 6 -7 42 c-6 40 -18 56 -39 55 -5 0 -49 -12 -96 -26z"/> <path d="M1258 2132 c-10 -2 -18 -8 -18 -13 0 -6 -4 -8 -9 -5 -5 4 -16 4 -24 0 -11 -4 -17 -31 -22 -102 -4 -53 -8 -99 -9 -101 0 -2 9 -6 22 -7 18 -3 22 1 22 25 0 16 -6 32 -12 34 -8 3 -6 6 5 6 12 1 17 -7 17 -29 0 -18 5 -30 13 -29 22 1 77 24 77 32 0 4 0 10 0 13 0 4 6 2 13 -4 19 -16 162 47 161 71 0 9 -1 35 -2 56 -2 45 -8 49 -98 56 -57 5 -64 4 -64 -12 -1 -17 -1 -17 -11 0 -16 27 -32 20 -27 -13 3 -16 1 -30 -3 -30 -4 0 -9 12 -11 28 -2 20 -8 27 -20 24z"/> <path d="M1143 2090 c-13 -5 -23 -13 -23 -17 0 -5 -15 -15 -32 -22 -37 -15 -36 -15 -62 -5 -14 5 -17 3 -14 -7 3 -8 11 -13 18 -11 11 3 11 0 0 -12 -13 -16 -25 -22 -16 -8 2 4 -2 15 -9 25 -13 17 -15 17 -57 -9 -23 -15 -45 -28 -47 -30 -2 -2 3 -12 12 -22 10 -10 17 -23 17 -28 0 -4 -7 2 -16 14 -19 27 -28 27 -92 1 l-52 -21 19 -25 c11 -13 22 -41 26 -63 4 -22 11 -40 16 -40 6 0 7 -4 4 -10 -3 -5 -1 -28 5 -51 9 -33 14 -39 22 -28 7 10 8 9 3 -7 -7 -26 32 -97 48 -87 6 3 7 1 3 -6 -4 -6 -1 -14 7 -17 14 -5 222 106 242 129 6 7 27 20 48 30 43 20 46 9 -27 101 -31 39 -32 47 -21 159 4 42 6 77 4 76 -2 0 -14 -4 -26 -9z"/> <path d="M1630 2046 c-36 -6 -85 -22 -110 -35 l-45 -25 50 -8 c28 -4 57 -6 66 -4 9 2 16 -2 16 -9 0 -6 -10 -10 -21 -8 -12 1 -43 7 -71 12 -44 8 -59 6 -132 -22 -52 -20 -83 -38 -83 -47 0 -11 -2 -12 -8 -3 -6 10 -17 10 -47 2 -22 -6 -42 -13 -44 -14 -7 -8 73 -94 82 -88 6 3 7 1 3 -5 -4 -7 -1 -12 6 -12 10 0 10 -2 -1 -9 -7 -5 -12 -13 -10 -19 3 -6 18 -3 39 8 29 16 31 19 13 20 -17 0 -21 4 -16 17 4 10 2 14 -4 10 -6 -4 -8 4 -5 21 4 19 7 22 10 10 3 -17 6 -17 35 -2 18 9 39 22 47 29 8 6 23 15 33 18 34 12 16 -3 -43 -35 -64 -36 -72 -53 -22 -53 18 0 32 -3 32 -7 0 -13 17 -9 56 14 21 12 33 23 27 25 -6 2 -8 15 -5 29 3 15 -1 29 -8 34 -9 6 0 15 28 29 23 12 42 19 42 16 0 -2 -13 -11 -29 -20 -26 -13 -29 -18 -21 -44 4 -16 6 -32 2 -35 -9 -10 18 -7 41 5 21 10 21 10 3 -5 -11 -9 -23 -16 -28 -16 -4 0 -8 -7 -8 -15 0 -8 9 -15 20 -15 11 0 20 -4 20 -9 0 -5 -39 -9 -87 -8 -66 0 -97 -4 -125 -18 -21 -10 -38 -23 -38 -27 0 -5 18 -47 40 -94 28 -59 44 -83 52 -78 7 4 27 16 43 27 l30 19 -24 -22 c-13 -11 -31 -25 -40 -29 -13 -8 -12 -16 10 -64 l25 -55 67 40 c37 21 67 44 67 50 0 5 -7 7 -16 4 -13 -5 -14 -4 -6 7 9 10 7 19 -5 38 l-17 24 22 -19 c22 -19 22 -19 23 0 0 11 3 13 6 6 7 -18 23 -4 24 21 0 21 1 21 8 2 7 -18 8 -18 18 -1 6 12 13 15 17 8 3 -6 -12 -21 -34 -33 -44 -25 -48 -33 -23 -47 17 -10 -1 -25 -104 -82 -24 -13 -43 -27 -43 -31 0 -12 58 -21 93 -14 17 4 49 16 70 27 32 16 36 22 27 33 -7 8 -16 13 -20 10 -4 -3 -11 2 -14 11 -10 27 -7 27 24 0 43 -36 63 -25 55 28 -4 22 -9 42 -10 44 -2 2 -16 -4 -32 -14 l-28 -18 22 22 c12 12 27 22 33 22 5 0 10 4 10 8 0 5 7 9 15 9 8 0 12 -4 9 -9 -3 -4 8 -8 24 -8 27 0 28 -2 23 -32 -5 -31 -6 -31 -9 -7 -2 19 -10 28 -28 32 -24 4 -25 3 -18 -42 4 -25 7 -47 8 -47 0 -1 22 3 48 9 46 11 46 11 40 47 -3 19 -10 38 -16 42 -6 5 -1 8 12 8 17 0 22 6 22 28 0 40 -11 50 -50 47 -19 -2 -45 -3 -57 -4 -14 -1 -23 -9 -26 -23 -4 -20 -4 -19 -6 5 -1 23 3 27 24 27 21 0 25 5 26 33 2 30 2 30 6 5 3 -19 10 -28 23 -28 13 0 20 9 23 28 l4 27 2 -27 c0 -16 6 -28 12 -28 7 0 8 14 4 43 -9 50 -13 56 -25 37 -7 -11 -9 -5 -9 20 1 19 3 27 6 18 7 -26 24 -22 19 5 -3 12 -8 49 -11 82 -4 33 -12 63 -19 67 -7 5 -7 8 0 8 10 0 9 34 -2 88 -5 25 -9 25 -104 8z"/> <path d="M2168 1913 c-8 -16 -13 -34 -11 -41 3 -8 -1 -10 -11 -6 -18 7 -20 -5 -10 -54 6 -29 9 -30 60 -34 41 -2 54 0 58 12 3 11 4 11 5 -2 1 -13 10 -18 30 -18 29 0 30 2 25 38 -12 90 -18 94 -90 73 -18 -5 -37 -5 -45 0 -10 6 -4 9 19 9 27 0 32 3 32 25 0 36 -40 34 -62 -2z"/> <path d="M1210 1742 l-22 -17 41 -94 c23 -52 48 -102 56 -110 8 -9 26 -42 39 -72 24 -52 28 -55 56 -51 16 2 30 10 30 17 0 7 -27 65 -59 130 -33 64 -68 139 -77 166 -19 53 -30 58 -64 31z"/> <path d="M1053 1653 l-111 -65 36 -53 c54 -79 154 -127 294 -139 l67 -6 -21 47 c-11 27 -29 57 -39 68 -10 12 -36 63 -58 115 -22 52 -43 95 -48 96 -4 1 -58 -27 -120 -63z"/> <path d="M2878 1612 c-88 -3 -88 -3 -89 -30 -2 -23 -2 -24 -6 -4 -5 26 -12 26 -135 11 -59 -8 -86 -15 -81 -23 3 -6 3 -8 -2 -4 -4 4 -15 2 -23 -5 -13 -10 -14 -9 -7 2 7 12 0 13 -40 8 -26 -4 -54 -12 -61 -18 -10 -9 -14 -9 -14 0 0 13 -10 14 -28 3 -9 -6 -6 -23 15 -73 23 -55 27 -82 31 -191 l4 -128 29 0 c30 0 32 8 13 68 -2 6 1 12 6 12 6 0 10 -10 10 -22 0 -13 4 -29 9 -37 9 -14 8 -14 228 33 28 6 61 20 72 31 17 15 21 16 16 3 -5 -13 -2 -15 14 -11 19 5 19 33 -1 33 -5 0 -6 5 -2 11 4 8 12 2 21 -15 10 -20 19 -26 31 -21 9 3 29 9 44 12 15 3 26 9 23 13 -2 4 7 5 20 2 27 -5 30 3 19 57 -7 32 -37 44 -47 19 -4 -10 -6 -10 -6 0 -1 8 8 16 19 19 12 3 20 14 21 27 1 11 8 -6 16 -39 8 -33 18 -64 22 -68 5 -5 37 -3 72 4 35 6 73 13 83 14 11 1 25 10 30 21 6 10 15 22 19 25 12 9 48 79 40 79 -4 0 -2 5 4 11 6 6 9 18 6 27 -4 9 -2 13 4 9 6 -4 10 6 11 23 1 29 -20 46 -40 33 -6 -3 -8 -1 -5 4 4 6 -3 11 -16 11 -12 0 -56 11 -97 25 -100 33 -150 43 -150 27 0 -7 8 -9 23 -5 17 5 19 4 7 -4 -8 -6 -23 -8 -32 -5 -14 4 -18 -1 -19 -23 -2 -24 -2 -25 -6 -5 -3 13 1 30 8 38 6 8 10 15 8 17 -2 1 -43 1 -91 -1z"/> <path d="M841 1530 c-46 -27 -86 -50 -88 -50 -2 0 -51 -28 -110 -62 l-105 -62 58 -54 59 -54 -57 47 c-43 35 -64 46 -80 42 -66 -15 -504 -163 -510 -172 -4 -5 -7 -49 -7 -97 0 -73 3 -87 17 -91 16 -4 15 -5 -1 -6 -16 -1 -17 -16 -16 -171 0 -93 3 -170 6 -170 4 0 36 13 72 30 36 16 109 47 161 69 52 23 94 46 92 52 -2 7 4 9 12 6 9 -4 31 0 50 8 20 8 58 15 86 15 27 0 50 2 50 4 0 3 -16 42 -35 87 -19 46 -35 89 -35 96 0 7 -7 13 -15 13 -13 0 -14 2 -3 14 11 12 14 12 22 -5 5 -10 17 -19 28 -19 33 0 248 103 249 120 0 9 2 10 5 3 4 -9 14 -8 39 4 19 9 32 20 29 25 -3 4 1 6 8 3 7 -3 30 1 50 8 27 10 35 16 27 24 -8 8 -6 11 6 10 9 -1 27 11 39 26 l21 29 -24 19 c-13 10 -19 19 -13 19 5 0 15 -7 23 -16 11 -14 15 -12 31 18 11 18 17 25 14 16 -3 -9 0 -19 7 -22 7 -2 4 -5 -5 -5 -10 -1 -18 -5 -18 -9 0 -5 -13 -29 -30 -53 -16 -24 -30 -47 -30 -50 0 -4 33 -10 73 -13 72 -7 133 6 121 25 -3 5 2 22 11 39 8 16 15 32 16 35 0 2 13 33 29 67 30 62 31 90 3 53 -15 -19 -15 -19 -8 4 6 20 4 23 -9 18 -10 -4 -15 -3 -12 2 4 5 -14 16 -39 24 -43 15 -45 15 -56 -4 -6 -11 -8 -27 -5 -35 3 -8 2 -12 -3 -9 -6 3 -14 -3 -20 -12 -18 -32 -12 -3 9 36 l19 39 -37 39 c-20 21 -48 54 -62 71 l-25 33 -84 -51z"/> <path d="M2308 1543 c-10 -2 -18 -10 -18 -16 0 -9 -3 -8 -8 1 -10 15 -72 5 -72 -12 0 -6 -4 -5 -9 3 -6 9 -18 11 -42 6 -29 -7 -31 -9 -14 -16 19 -7 19 -8 -2 -8 -12 -1 -23 3 -25 9 -3 10 -168 -9 -168 -20 0 -3 -18 -4 -40 -2 -33 3 -40 1 -41 -14 0 -11 -3 -14 -6 -6 -2 6 -14 12 -25 12 -14 0 -18 -5 -14 -17 2 -10 7 -43 11 -73 9 -76 14 -90 32 -90 13 0 15 12 10 78 -3 42 -3 65 0 50 3 -18 12 -28 26 -31 20 -4 20 -4 2 -6 -20 -1 -20 -3 -6 -106 13 -99 15 -105 35 -100 19 5 19 5 4 -5 -27 -17 -24 -68 5 -73 20 -4 20 -4 1 -6 -18 -1 -20 -6 -14 -43 5 -40 7 -43 35 -41 l30 2 -27 -10 c-36 -14 -40 -52 -5 -45 12 2 36 7 52 10 29 5 29 5 -3 -6 -21 -7 -31 -16 -28 -24 4 -11 2 -11 -15 -1 -16 10 -21 9 -28 -2 -6 -8 -11 16 -16 68 -6 73 -9 81 -29 82 -16 1 -17 2 -3 6 20 5 20 5 5 111 -9 68 -14 82 -29 82 -13 0 -19 -9 -21 -32 -3 -28 -7 -33 -33 -36 -17 -1 -25 1 -19 5 7 4 14 17 17 28 4 18 5 18 6 -2 1 -32 21 -29 21 3 l0 27 -62 -7 c-35 -4 -64 -9 -66 -11 -2 -1 3 -47 10 -101 l13 -99 55 -1 55 -1 8 -44 c4 -24 6 -55 4 -69 -3 -16 -5 -12 -6 13 0 21 -5 36 -9 33 -4 -2 -6 10 -4 28 l4 33 -46 -7 c-25 -4 -48 -9 -51 -12 -9 -9 19 -168 30 -168 6 0 7 -3 0 -8 -6 -4 -8 -41 -5 -92 l5 -85 48 62 c52 68 61 98 25 88 -21 -6 -21 -6 -6 6 9 8 19 28 21 44 4 27 4 27 6 -7 2 -52 15 -54 48 -8 17 24 36 39 48 39 19 0 19 -1 -1 -9 -20 -8 -39 -36 -36 -52 1 -5 -4 -8 -12 -8 -8 0 -17 -7 -20 -16 -7 -19 -9 -17 28 -36 25 -13 26 -16 10 -22 -10 -4 -15 -4 -11 0 4 4 -5 13 -20 21 -24 12 -28 12 -37 -4 -6 -10 -11 -25 -11 -33 0 -8 -5 -15 -11 -15 -6 0 -24 -15 -39 -34 l-29 -34 35 -31 c62 -54 77 -65 85 -58 4 4 4 1 0 -5 -5 -8 6 -19 29 -30 36 -17 37 -17 83 9 44 25 70 61 40 57 -31 -4 -44 2 -45 24 -2 19 -1 20 8 4 6 -9 16 -17 24 -17 11 0 10 8 -6 35 -12 19 -17 35 -11 35 5 0 12 -9 15 -21 3 -12 10 -18 16 -14 7 4 9 -1 5 -12 -3 -10 12 1 34 23 31 32 43 39 53 30 9 -8 10 -8 6 0 -4 7 2 23 14 35 l21 24 -15 -24 c-16 -24 -12 -56 4 -45 5 3 9 2 8 -3 -3 -19 2 -23 20 -14 13 7 18 20 16 39 -1 19 2 29 11 29 17 0 19 -17 2 -18 -7 0 -2 -5 12 -11 14 -6 29 -10 33 -9 5 1 35 3 68 5 33 2 62 6 65 8 2 3 5 20 5 39 3 70 -1 89 -17 89 -8 0 -13 4 -9 10 3 5 12 7 20 3 12 -4 15 4 15 36 0 34 -4 43 -22 51 -20 7 -12 15 13 12 4 -1 7 18 7 41 0 23 4 64 7 91 5 36 4 51 -6 57 -8 5 -9 9 -3 9 14 0 5 102 -10 112 -8 5 -7 8 2 8 18 0 16 129 -4 175 -21 51 -57 105 -69 104 -5 -1 -18 -3 -27 -6z"/> <path d="M3303 1479 c-1 -25 3 -47 10 -51 8 -5 6 -8 -5 -8 -10 0 -18 -6 -18 -13 0 -7 -8 -22 -18 -33 -10 -11 -27 -32 -36 -47 -18 -27 -18 -27 4 -27 20 0 21 2 9 18 -12 15 -12 15 8 -1 11 -10 30 -19 42 -20 11 -1 21 -5 21 -10 0 -5 7 -7 15 -4 8 4 17 2 21 -4 3 -6 13 -8 22 -4 8 3 18 2 21 -2 3 -5 25 -20 47 -35 39 -25 42 -25 60 -10 18 16 18 16 1 -4 -18 -21 -17 -22 17 -44 20 -12 36 -24 36 -27 0 -3 -12 3 -27 13 -94 62 -180 105 -205 101 -16 -2 -28 0 -28 4 0 11 -74 17 -82 5 -4 -5 -4 -55 -2 -111 13 -247 19 -435 13 -435 -3 0 -20 5 -38 11 -18 6 -34 9 -37 6 -8 -7 47 -87 59 -87 6 0 7 -3 4 -7 -4 -3 -2 -12 4 -20 9 -10 15 -11 28 -1 13 10 14 10 4 -2 -19 -20 -16 -29 7 -25 12 2 18 0 15 -6 -4 -5 -11 -6 -17 -3 -14 9 -9 -1 27 -58 17 -26 33 -48 36 -48 3 0 100 45 215 99 152 72 209 104 208 115 -2 12 1 14 11 6 7 -6 20 -8 29 -4 12 5 16 20 16 69 0 35 -4 67 -10 70 -5 3 -10 12 -10 18 0 9 2 9 8 -1 5 -7 9 11 9 42 0 43 -3 56 -16 59 -14 4 -14 5 1 6 15 1 17 22 17 206 l1 205 -23 5 c-13 4 -30 7 -38 8 -8 2 -19 6 -25 9 -6 4 -29 11 -52 17 -41 9 -42 8 -52 -23 l-10 -31 5 32 c4 29 1 33 -23 39 -15 3 -49 14 -76 25 -27 11 -67 22 -88 25 -21 4 -35 11 -32 16 4 7 -9 9 -35 6 -22 -2 -42 0 -44 5 -1 5 -3 -10 -4 -34z"/> <path d="M1795 1467 c-5 -12 -10 -15 -15 -7 -9 14 -38 3 -43 -18 -4 -15 -5 -15 -6 1 -1 15 -4 16 -22 7 -18 -10 -20 -17 -13 -83 3 -40 10 -76 13 -80 4 -4 33 -5 65 -1 l57 7 -3 41 c-2 32 -7 41 -20 40 -14 -1 -18 5 -17 30 1 23 3 25 6 9 2 -13 9 -23 14 -23 10 0 10 21 -1 65 -6 26 -8 27 -15 12z"/> <path d="M1595 1410 c-27 -10 -74 -19 -103 -19 -46 -1 -53 -3 -48 -18 3 -10 8 -39 12 -65 4 -35 11 -48 23 -48 12 0 13 -2 3 -8 -18 -12 23 -102 46 -102 11 0 13 -3 5 -8 -9 -5 -9 -16 0 -45 14 -42 24 -47 30 -14 3 16 5 13 6 -10 0 -18 7 -33 14 -34 6 -1 23 -1 37 -2 23 0 23 0 3 -4 -13 -2 -23 -12 -23 -21 0 -14 -2 -13 -13 3 -13 17 -14 17 -20 -5 -3 -13 -3 -28 1 -34 7 -12 8 -19 10 -98 l2 -58 85 0 85 0 0 28 c0 31 -9 47 -30 55 -12 4 -11 6 3 6 16 1 18 7 12 59 -8 66 -10 69 -50 75 -30 4 -30 4 4 6 32 1 33 2 28 34 -3 17 -12 93 -22 167 -21 171 -23 180 -38 179 -6 0 -34 -9 -62 -19z"/> <path d="M1204 1355 c-15 -23 -16 -30 -4 -48 12 -19 11 -21 -2 -9 -13 10 -19 4 -40 -44 -25 -54 -25 -57 -11 -112 8 -32 18 -61 22 -65 11 -11 42 3 34 16 -3 6 -1 7 6 3 14 -9 43 12 35 25 -3 5 -1 8 4 7 13 -4 92 81 92 98 0 7 -8 18 -17 24 -16 10 -15 10 3 5 28 -7 35 12 27 70 -5 40 -9 45 -32 45 -14 1 -43 3 -63 6 -32 5 -39 2 -54 -21z"/> <path d="M1367 1373 c-4 -3 -4 -29 -1 -57 5 -42 1 -60 -20 -100 -14 -27 -22 -54 -19 -60 3 -6 3 -8 -2 -4 -4 4 -28 -11 -54 -34 -25 -22 -56 -45 -69 -51 -18 -8 -22 -16 -16 -31 4 -12 7 -49 6 -83 -2 -60 0 -63 28 -78 l29 -15 4 43 4 42 1 -47 c1 -26 5 -49 10 -51 4 -3 37 -8 75 -12 l67 -7 2 79 2 78 3 -75 c3 -43 9 -78 16 -82 7 -4 36 -8 64 -8 48 0 53 2 59 26 11 41 -26 213 -48 225 -10 5 -23 7 -28 4 -6 -3 -10 -1 -10 4 0 6 -6 11 -13 11 -15 0 -127 60 -113 60 4 0 29 -11 55 -23 47 -24 113 -49 117 -44 2 1 -13 38 -32 82 -20 44 -40 107 -45 139 -6 33 -12 63 -15 68 -6 10 -48 11 -57 1z"/> <path d="M3085 1273 c-11 -2 -30 -6 -42 -9 -13 -2 -23 -12 -23 -22 0 -12 -3 -13 -8 -5 -6 10 -23 10 -77 -2 -39 -8 -71 -19 -73 -25 -2 -5 -8 -10 -13 -10 -6 0 -7 5 -3 12 5 8 2 9 -10 5 -10 -4 -23 -7 -29 -7 -7 0 -6 -4 3 -10 13 -8 13 -10 -2 -10 -9 0 -18 4 -20 9 -1 5 -49 0 -105 -12 -89 -19 -103 -25 -104 -42 -1 -18 -2 -18 -6 -2 -4 14 -11 17 -34 13 -96 -19 -89 -14 -90 -59 0 -23 -2 -51 -5 -62 -5 -25 -7 -175 -2 -179 1 -2 22 -6 46 -9 38 -5 42 -3 43 16 1 21 2 21 6 2 7 -30 12 -32 81 -39 47 -5 62 -3 62 6 0 8 5 6 11 -4 7 -14 23 -18 62 -18 29 0 106 -7 172 -15 65 -8 125 -15 132 -15 8 0 13 25 16 83 l3 82 2 -82 c2 -79 3 -83 27 -89 14 -3 43 -4 65 -2 29 3 40 0 42 -12 3 -14 3 60 -1 167 l-1 42 -47 4 -48 3 49 2 49 2 -7 77 c-3 42 -6 109 -6 150 l0 73 -47 -1 c-27 -1 -57 -3 -68 -6z"/> <path d="M875 1141 c-3 -6 -10 -9 -15 -6 -4 3 -10 -2 -14 -10 -3 -8 -11 -12 -18 -10 -17 7 -296 -120 -322 -145 -19 -18 -19 -20 3 -73 l23 -55 49 -4 c27 -1 49 0 49 4 0 4 7 4 17 1 11 -4 14 -3 9 5 -5 8 -1 10 11 5 10 -3 15 -2 10 2 -4 5 23 25 60 44 47 25 70 44 75 61 7 24 8 24 4 -2 -4 -33 -4 -33 34 -13 26 14 30 21 29 58 0 25 -3 35 -7 26 -6 -14 -9 -14 -19 -4 -9 10 -8 14 6 18 13 3 20 18 24 53 5 51 4 63 -8 45z"/> <path d="M896 1112 c-3 -20 -6 -61 -6 -89 0 -52 1 -53 29 -53 48 0 64 9 49 29 -11 14 -11 14 3 4 8 -7 26 -10 40 -7 20 5 21 4 9 -6 -13 -10 -13 -11 0 -7 16 5 16 10 5 40 -4 10 -3 17 5 17 6 0 8 -5 4 -12 -5 -8 -2 -9 10 -5 10 4 20 7 22 7 3 0 3 3 1 8 -3 4 12 7 34 7 21 1 41 4 45 8 9 9 -16 67 -30 68 -6 1 -15 2 -21 3 -5 1 -41 5 -80 9 -38 5 -80 10 -91 12 -18 4 -22 -1 -28 -33z"/> <path d="M1122 1027 c-12 -7 -20 -16 -16 -19 3 -4 -4 -4 -16 -1 -17 4 -19 8 -8 15 10 8 10 9 -2 5 -8 -2 -14 -14 -14 -25 1 -16 -5 -22 -20 -23 -42 -3 -52 -5 -111 -18 -33 -7 -75 -21 -93 -32 -39 -22 -46 -24 -36 -6 4 7 3 9 -2 4 -5 -5 -9 -14 -9 -20 0 -7 -10 -12 -22 -11 -12 0 -21 -4 -20 -10 1 -6 -8 -11 -20 -10 -12 0 -19 -4 -16 -9 4 -6 -1 -8 -11 -4 -9 4 -15 3 -12 -2 11 -18 -96 -52 -187 -60 -79 -7 -108 -15 -207 -58 -63 -28 -155 -68 -205 -90 l-90 -39 -3 -138 c-2 -135 -2 -140 21 -165 78 -85 153 -199 148 -227 -2 -18 65 -64 96 -65 28 -1 28 -1 3 -8 -14 -4 202 -8 480 -10 l505 -2 14 23 c14 23 14 23 -7 5 -13 -12 -22 -15 -27 -7 -3 6 -3 9 2 8 4 -2 18 4 30 13 21 15 22 17 6 40 l-17 24 22 -19 c21 -18 21 -18 46 10 34 39 33 53 -1 23 l-28 -24 24 27 c13 15 26 26 30 25 3 -1 8 3 10 8 2 6 14 19 26 30 32 29 122 150 104 141 -7 -4 -4 1 8 11 37 30 72 84 66 101 -3 12 -2 13 4 4 15 -20 54 39 41 64 -9 18 -8 18 5 2 8 -10 17 -15 20 -11 9 9 9 51 0 55 -5 2 -24 20 -43 41 -33 35 -35 43 -40 124 l-5 86 -30 3 c-16 2 -67 5 -112 6 -46 2 -83 7 -83 12 0 5 -19 6 -42 3 -23 -3 -36 -2 -29 2 9 6 -2 17 -36 36 -26 15 -60 39 -74 52 l-26 24 -34 -28 c-19 -15 -41 -33 -49 -40 -98 -77 -133 -109 -141 -130 -5 -13 -9 -60 -9 -103 0 -76 -1 -78 -26 -84 -15 -4 -31 -3 -36 2 -6 6 1 12 21 17 l31 7 1 76 c0 42 3 84 7 93 4 9 34 40 67 68 54 47 86 85 56 67 -6 -4 -11 -2 -11 3 0 6 7 11 16 11 9 0 12 5 8 13 -4 6 -4 9 1 5 4 -4 15 -2 24 4 10 8 9 4 -3 -10 -32 -37 -13 -34 30 6 23 20 45 39 50 41 26 11 54 41 54 60 0 24 -15 26 -48 8z"/> <path d="M2430 811 c0 -11 8 -22 18 -24 15 -4 15 -5 -2 -6 -12 -1 -16 -6 -12 -17 3 -9 6 -24 6 -34 0 -13 9 -20 28 -23 l27 -4 -27 -2 c-26 -1 -28 -4 -29 -43 -1 -41 -1 -41 -9 -14 -5 16 -7 33 -4 38 9 13 -157 1 -171 -14 -11 -11 18 -117 34 -121 10 -3 8 -5 -6 -6 -16 -1 -23 5 -23 18 0 11 -7 26 -15 34 -10 10 -11 17 -4 19 15 5 2 48 -15 48 -21 0 -52 -29 -40 -37 5 -5 40 -57 77 -116 59 -95 106 -205 99 -231 -2 -4 17 -6 40 -4 24 3 35 3 26 1 -10 -3 -18 -8 -18 -13 0 -4 -9 -6 -20 -3 -17 5 -20 0 -20 -26 0 -17 5 -31 11 -31 5 0 7 -5 4 -10 -11 -19 6 -50 28 -51 18 -1 19 -2 4 -6 -14 -4 -17 -10 -12 -26 3 -12 9 -38 12 -59 7 -48 11 -49 347 -47 204 1 274 4 269 13 -5 8 -3 8 8 -1 9 -7 76 -11 207 -11 l194 1 -7 26 c-4 14 -10 28 -13 31 -13 9 -13 32 -1 24 14 -8 16 -19 -37 165 -31 106 -43 135 -58 139 -16 4 -17 6 -5 11 12 5 14 13 7 39 -8 29 -11 31 -29 21 -11 -6 -23 -8 -27 -5 -3 3 -1 6 4 6 5 0 15 4 23 9 12 8 -3 36 -73 140 -80 121 -107 151 -136 151 -8 0 -10 -28 -8 -93 l3 -93 -25 5 c-18 4 -20 6 -7 9 14 3 17 15 17 86 l0 83 -87 12 c-47 7 -124 15 -170 18 -77 6 -83 5 -84 -13 0 -17 -1 -17 -9 2 -7 17 -20 23 -72 28 -34 4 -75 10 -89 13 -25 5 -26 3 -32 -48 -4 -30 -2 -58 3 -63 5 -5 40 -12 77 -16 l68 -7 -55 -1 c-90 0 -105 7 -105 54 0 21 -4 42 -10 46 -6 5 -6 8 3 8 18 0 15 27 -4 34 -9 3 -29 6 -45 6 -22 0 -29 -5 -29 -19z"/> <path d="M1570 725 c0 -75 2 -83 31 -119 24 -28 34 -34 40 -24 6 9 9 7 9 -9 0 -33 12 -28 49 17 37 47 51 86 51 148 l0 42 -40 -6 c-25 -4 -40 -3 -40 4 0 5 6 10 13 9 35 -1 67 4 67 11 0 4 -41 7 -90 7 l-90 1 0 -81z"/> <path d="M3690 647 c-47 -23 -147 -71 -223 -107 -98 -45 -136 -68 -132 -78 3 -8 8 -25 11 -38 3 -13 10 -24 16 -24 5 0 6 -5 3 -11 -4 -6 12 -78 36 -161 l43 -150 35 6 c58 10 117 16 99 10 -22 -7 -22 -6 2 -55 l21 -40 99 2 100 1 0 233 c0 176 -3 235 -13 238 -9 4 -9 6 1 6 9 1 12 29 12 106 0 78 -3 105 -12 104 -7 0 -51 -19 -98 -42z"/> <path d="M1753 628 c-14 -19 -9 -44 7 -40 11 3 10 -2 -4 -16 -17 -20 -17 -21 6 -35 12 -8 45 -26 72 -39 37 -19 45 -26 32 -31 -11 -5 -15 -3 -10 5 5 8 2 9 -10 5 -9 -4 -15 -3 -12 2 3 5 -8 14 -25 21 -26 11 -33 11 -41 -1 -8 -11 -9 -11 -5 2 6 19 -35 63 -48 52 -4 -5 -5 -2 -1 5 12 21 -8 13 -22 -8 -15 -24 -19 -16 64 -126 36 -47 67 -99 71 -115 3 -16 9 -26 14 -23 5 3 6 -2 2 -12 -6 -15 16 -5 117 55 12 8 10 17 -14 60 -15 28 -25 51 -22 51 3 0 15 -18 26 -39 24 -48 34 -55 60 -41 11 6 20 9 20 6 0 -2 -40 -28 -90 -57 -49 -30 -90 -57 -90 -60 0 -3 20 -37 45 -74 24 -37 46 -71 47 -75 2 -4 15 -10 30 -13 25 -7 26 -6 25 38 -1 25 1 45 6 45 4 0 6 3 5 8 0 4 1 14 5 22 22 59 24 77 11 101 -7 13 -13 29 -13 34 0 6 8 -5 18 -24 16 -31 17 -38 4 -80 -8 -25 -17 -69 -20 -98 l-5 -52 38 -4 39 -4 -37 -1 c-40 -2 -46 -9 -25 -31 10 -11 10 -13 0 -7 -7 4 -13 3 -13 -3 0 -29 76 -41 83 -14 4 15 5 15 6 2 1 -13 16 -16 99 -14 208 2 202 1 202 34 0 46 -19 89 -38 86 -9 -1 -11 0 -4 2 15 6 15 10 -2 66 -7 25 -11 48 -8 51 3 4 -6 7 -19 7 -17 1 -19 3 -6 6 23 6 22 39 -4 108 -14 37 -25 55 -34 51 -8 -3 -12 2 -10 12 1 9 -5 25 -14 36 -9 10 -15 21 -15 25 4 18 -9 31 -21 21 -11 -9 -13 -5 -9 17 3 21 -3 36 -26 61 l-30 34 -32 -19 c-39 -23 -45 -39 -17 -46 15 -4 20 -11 15 -23 -7 -19 31 -87 45 -79 5 4 6 -1 3 -10 -4 -10 -2 -15 7 -13 12 3 15 -2 18 -37 0 -8 5 -15 10 -15 6 0 8 9 6 20 -2 12 0 18 6 15 5 -4 7 -10 4 -15 -3 -5 -1 -12 5 -15 8 -5 7 -11 -1 -21 -9 -11 -9 -14 0 -14 7 0 10 -4 7 -9 -4 -5 -3 -11 1 -14 5 -2 2 -2 -5 0 -8 1 -12 -3 -9 -9 2 -7 9 -12 15 -11 6 2 9 -4 6 -12 -4 -9 4 -19 23 -27 15 -7 31 -17 35 -23 12 -17 -9 -28 -29 -16 -16 11 -16 11 5 6 31 -9 27 2 -8 20 -19 10 -30 11 -30 5 0 -6 -5 -8 -11 -4 -8 5 -8 9 1 14 7 4 8 10 3 13 -12 8 -99 -50 -95 -63 1 -6 -4 -9 -10 -8 -7 2 -12 -1 -11 -7 0 -5 -5 -16 -13 -23 -8 -7 -14 -10 -14 -6 0 9 34 64 40 64 3 0 11 4 19 9 10 7 11 13 1 32 -10 21 -10 22 3 7 15 -19 33 -25 22 -8 -4 6 1 7 11 3 14 -5 16 -3 11 12 -6 15 -5 16 8 5 21 -17 19 2 -4 31 -21 27 -54 89 -47 89 2 0 16 -21 31 -46 15 -25 29 -44 31 -41 8 8 -53 102 -64 100 -7 -2 -9 4 -5 15 6 15 5 16 -13 2 -18 -14 -18 -14 -5 3 15 20 2 23 -19 5 -8 -7 -7 -4 2 7 16 20 16 23 -8 63 l-26 43 -46 -27 c-26 -15 -58 -34 -72 -43 -14 -8 -22 -11 -18 -6 5 4 -3 15 -16 24 -13 9 -39 27 -57 40 -18 14 -29 19 -24 11 5 -9 4 -11 -3 -6 -6 4 -21 2 -33 -4 -16 -9 -24 -9 -33 0 -8 8 -7 10 4 6 8 -3 22 -1 30 4 12 7 13 13 3 27 -6 10 -16 17 -22 16 -6 -2 -10 2 -8 8 3 17 -18 22 -30 7z"/> <path d="M1636 476 c-15 -21 -22 -37 -16 -41 5 -3 10 -1 10 5 0 6 5 8 11 5 7 -5 5 -11 -4 -18 -8 -7 -18 -19 -21 -27 -3 -8 -4 -5 -2 8 2 12 1 22 -3 22 -11 0 -31 -23 -31 -36 0 -17 30 -26 45 -14 21 18 39 -14 24 -42 -8 -14 -14 -18 -17 -10 -2 6 -9 9 -14 6 -7 -4 -8 -2 -4 4 4 6 -5 19 -20 29 -25 16 -27 16 -40 -2 -7 -10 -11 -22 -7 -28 3 -6 2 -7 -4 -4 -13 8 -76 -79 -68 -93 3 -6 -1 -7 -9 -4 -10 4 -16 1 -16 -9 0 -8 -4 -17 -10 -19 -5 -1 -34 -36 -64 -77 -55 -73 -55 -74 -39 -101 13 -22 23 -27 52 -26 20 0 39 5 43 11 5 6 8 4 9 -5 0 -10 3 -8 9 5 7 17 9 17 9 3 1 -16 20 -17 242 -16 238 1 240 2 235 22 -3 12 -6 26 -6 32 0 7 -10 15 -22 19 -19 6 -20 8 -6 12 22 6 12 34 -37 102 -36 50 -37 50 -61 35 -13 -9 -24 -20 -24 -25 0 -5 -8 -9 -17 -9 -14 0 -15 2 -4 9 7 5 11 14 7 20 -4 6 -2 9 6 6 8 -3 22 1 33 9 17 13 18 17 5 55 -7 22 -17 41 -22 41 -5 0 -6 5 -3 10 8 12 -58 105 -80 114 -8 3 -14 11 -13 18 2 7 -3 12 -10 10 -8 -1 -11 2 -8 7 4 5 2 12 -3 15 -5 3 -21 -10 -35 -28z"/><path d="M1 156 l0 -156 117 0 116 0 -33 34 c-18 19 -38 33 -45 32 -6 -2 -8 -1 -4 1 18 10 -10 74 -62 143 -94 124 -90 127 -89 -54z"/></g></svg>